<svg width="48" height="48" viewBox="0 0 48 48" fill="none" xmlns="http://www.w3.org/2000/svg">
<path d="M21.0633 37C22.1823 37 23.0894 36.0928 23.0894 34.9738C23.0894 33.8548 22.1823 32.9476 21.0633 32.9476C19.9443 32.9476 19.0371 33.8548 19.0371 34.9738C19.0371 36.0928 19.9443 37 21.0633 37Z" stroke="white" stroke-miterlimit="10" stroke-linecap="round" stroke-linejoin="round"/>
<path d="M30.5123 37C31.6313 37 32.5384 36.0928 32.5384 34.9738C32.5384 33.8548 31.6313 32.9476 30.5123 32.9476C29.3932 32.9476 28.4861 33.8548 28.4861 34.9738C28.4861 36.0928 29.3932 37 30.5123 37Z" stroke="white" stroke-miterlimit="10" stroke-linecap="round" stroke-linejoin="round"/>
<path d="M9 13L11.3798 13C11.6145 13 11.8251 13.1443 11.9099 13.3632L13.8123 18.2738H36.5735C36.9179 18.2738 37.1706 18.5973 37.0873 18.9314L34.429 29.5846C34.3658 29.8378 34.1383 30.0155 33.8774 30.0155H17.0093C17.0093 30.0155 15.1952 30.0155 15.1952 31.4724C15.1952 32.9294 17.0093 32.9294 17.0093 32.9294H34.9074" stroke="white" stroke-miterlimit="10" stroke-linecap="round" stroke-linejoin="round"/>
<path d="M13.8123 18.2738H36.5735C36.9179 18.2738 37.1706 18.5973 37.0872 18.9314L34.429 29.5846C34.3658 29.8378 34.1383 30.0155 33.8774 30.0155H17.6123L13.8123 18.2738Z" stroke="white" stroke-miterlimit="10" stroke-linecap="round" stroke-linejoin="round"/>
<path d="M19.6721 18.2738L21.8888 29.547" stroke="white" stroke-miterlimit="10" stroke-linecap="round" stroke-linejoin="round"/>
<path d="M26.1177 18.2738V29.9934" stroke="white" stroke-miterlimit="10" stroke-linecap="round" stroke-linejoin="round"/>
<path d="M31.9775 18.2738L30.47 29.5323" stroke="white" stroke-miterlimit="10" stroke-linecap="round" stroke-linejoin="round"/>
<path d="M16.1562 24.0769L35.4935 24.0769" stroke="white" stroke-miterlimit="10" stroke-linecap="round" stroke-linejoin="round"/>
</svg>
