<svg width="96" height="44" viewBox="0 0 96 44" fill="none" xmlns="http://www.w3.org/2000/svg">
<path d="M71.4115 32.3574H70.0788C69.5055 32.3574 69.2188 32.6613 69.2188 33.2659C69.2188 34.5695 69.1753 35.9471 69.0898 37.4019C69.0312 39.1589 68.617 40.7034 67.8426 42.0369C67.613 42.3392 67.4989 42.6116 67.4989 42.8556C67.4989 43.0997 67.8276 43.0068 68.4879 42.5833C69.9497 41.6433 70.9658 40.431 71.5406 38.9479C72.0569 37.0083 72.3 35.1158 72.2715 33.2674C72.2715 32.6613 71.9848 32.359 71.4115 32.359V32.3574Z" fill="white"/>
<path d="M82.5882 35.766C82.8463 36.3722 83.175 36.3422 83.5772 35.6747L84.7809 33.6295C85.1531 33.0234 85.0525 32.4629 84.4792 31.948L80.6536 28.6764C80.0803 28.1915 79.7516 27.9648 79.6646 27.9947C79.579 28.0246 79.6361 28.3426 79.8357 28.9488C80.5516 31.0994 81.4701 33.3729 82.5867 35.766H82.5882Z" fill="white"/>
<path d="M82.1139 11.953C82.6872 11.953 82.9738 11.6507 82.9738 11.0445C82.9738 10.4699 82.6872 10.1818 82.1139 10.1818H74.8919C74.3186 10.1818 74.032 10.4856 74.032 11.0902C74.032 11.6948 74.3186 11.9546 74.8919 11.9546H82.1139V11.953Z" fill="white"/>
<path d="M80.2228 25.5859C80.2228 25.9496 80.523 26.1306 81.1263 26.1306H81.7281C82.2999 26.1306 82.5881 25.8126 82.5881 25.1765V15.042C82.5881 14.4358 82.3014 14.1335 81.7281 14.1335H81.0828C80.5095 14.1335 80.2228 14.4516 80.2228 15.0876C80.2228 15.7237 79.9932 15.9961 79.5354 15.9961H78.1592C77.7014 15.9961 77.4718 15.6781 77.4718 15.042C77.4718 14.4059 77.1852 14.1335 76.6118 14.1335H75.5808C75.0075 14.1335 74.7208 14.4374 74.7208 15.042V25.5859C74.7208 26.192 75.0225 26.4943 75.6243 26.4943H76.6134C77.1867 26.4943 77.4733 26.2377 77.4733 25.7213C77.4733 25.2663 77.7164 25.0395 78.2042 25.0395H79.5369C79.9947 25.0395 80.2243 25.2206 80.2243 25.5843L80.2228 25.5859ZM78.1592 23.2683C77.7014 23.2683 77.4718 23.0117 77.4718 22.4953V18.1326C77.4718 17.6476 77.7149 17.4052 78.2027 17.4052H79.5775C80.0067 17.4052 80.2228 17.6634 80.2228 18.1782V22.5409C80.2228 23.0259 79.9932 23.2683 79.5354 23.2683H78.1592Z" fill="white"/>
<path d="M95.7413 25.5858C95.6843 24.9797 95.5117 24.5263 95.225 24.2224C94.9954 23.8288 94.8228 23.3738 94.7088 22.859C94.4506 21.4955 94.293 19.9967 94.236 18.3593C94.236 17.7531 94.1925 17.4351 94.1069 17.4052C94.0214 17.4666 93.9344 17.7988 93.8488 18.4049L92.7307 24.9939C92.6452 25.5386 92.4005 25.5544 91.9998 25.0395L90.0653 22.4937C89.6931 22.0088 89.636 21.5238 89.8942 21.0389C91.5556 18.0696 92.444 14.631 92.5596 10.7233C92.5596 10.1172 92.273 9.81489 91.6996 9.81489H90.3669C89.7936 9.81489 89.507 10.1188 89.507 10.7233C89.3344 13.3904 89.0612 15.7379 88.6905 17.7673C88.5464 18.2821 88.3903 18.2979 88.2178 17.8129C87.5304 15.6025 87.1282 13.5872 87.0141 11.7687C86.9286 10.558 86.8565 9.34572 86.7995 8.13341C86.7995 7.52726 87.0291 7.22497 87.4869 7.22497H94.4506C95.0239 7.22497 95.3106 6.90694 95.3106 6.27088C95.3106 5.69621 95.0239 5.40652 94.4506 5.40652H92.2579C91.7987 5.40652 91.7131 5.14989 91.9998 4.63348L92.6872 3.49675C93.0879 2.83077 93.0159 2.33011 92.4726 1.99633L89.9797 0.451825C89.4349 0.149536 89.1047 0.073964 88.9907 0.225108C88.9051 0.346338 88.9757 0.710029 89.2053 1.31618C89.663 2.37734 90.1373 3.43692 90.6236 4.49651C90.7947 5.10266 90.6521 5.40495 90.1943 5.40495H87.4433C86.9841 5.40495 86.756 5.14832 86.756 4.63191V1.2721C86.756 0.665946 86.4693 0.363657 85.896 0.363657H84.8649C84.2916 0.363657 84.005 0.66752 84.005 1.2721V4.68071C84.005 5.16563 83.7754 5.40809 83.3176 5.40809H73.3012C72.8419 5.40809 72.6123 5.10581 72.6123 4.49966C72.6123 3.92499 72.3257 3.63687 71.7523 3.63687H70.7633C70.19 3.63687 69.9033 3.94074 69.9033 4.54531V23.0416C69.7307 24.2539 69.5296 25.4504 69.3015 26.6313C69.0149 27.7522 68.6141 28.9646 68.0979 30.2666C67.9268 30.6303 67.8397 30.8885 67.8397 31.0396C67.8682 31.1309 68.1684 30.8727 68.7432 30.2666C71.065 27.4799 72.2821 24.9797 72.3977 22.7676C72.5118 21.3743 72.5838 20.0108 72.6123 18.6773V7.95236C72.6123 7.46743 72.8554 7.22497 73.3432 7.22497H83.3161C83.7739 7.22497 84.0185 7.46743 84.047 7.95236C84.2466 10.8603 84.4612 13.2093 84.6923 14.9963C85.0075 17.391 85.5958 19.7526 86.4543 22.0859C86.6539 22.6007 86.6269 23.0857 86.3688 23.5407C85.5373 24.9041 84.5483 26.2975 83.4031 27.7223C82.8869 28.3584 82.7008 28.7378 82.8448 28.8591C82.9589 28.9504 83.3026 28.7378 83.8759 28.223L87.0996 25.315C87.5574 24.8915 87.9596 24.9671 88.3033 25.5418C89.3929 27.2091 90.6251 28.4198 92.0013 29.1771C92.8313 29.662 93.8923 30.1312 95.1815 30.5862C95.7548 30.7389 96.0265 30.5106 95.998 29.9045L95.7398 25.5874L95.7413 25.5858Z" fill="white"/>
<path d="M90.5395 30.9027C90.0818 30.4178 89.7936 30.1753 89.6796 30.1753C89.5655 30.1753 89.6075 30.4792 89.8086 31.0837C90.8112 33.9917 92.0719 37.1279 93.5922 40.4909C93.8503 41.0655 94.122 41.0514 94.4086 40.4452L95.5688 37.945C95.8554 37.3389 95.7263 36.7343 95.1815 36.1266L90.538 30.9011L90.5395 30.9027Z" fill="white"/>
<path d="M89.2067 38.7197C88.863 38.1136 88.6484 37.5074 88.5613 36.9013C88.3602 36.0542 88.4037 34.8419 88.6904 33.2659C88.7474 32.6598 88.6619 32.3575 88.4322 32.3575C88.2326 32.3575 88.0465 32.6613 87.8739 33.2659C87.5873 34.9017 87.3577 36.8099 87.1866 38.9921C87.1295 39.5982 86.9284 40.0517 86.5847 40.3555C86.2411 40.598 85.8388 40.7192 85.3811 40.7192H80.1808C79.7215 40.8405 79.2068 40.6893 78.6334 40.2642C78.0601 39.8092 77.7735 39.34 77.7735 38.8551V30.7201C77.7735 30.1139 77.4868 29.8116 76.9135 29.8116H75.5808C75.0075 29.8116 74.7208 30.1155 74.7208 30.7201V41.6733C74.979 43.3391 75.8089 44.0963 77.2137 43.9452H86.972C87.6023 44.1278 88.3182 43.8539 89.1211 43.1265C89.6944 42.5818 90.0381 41.7174 90.1522 40.5366C90.1522 39.9304 89.8355 39.3243 89.2067 38.7181V38.7197Z" fill="white"/>
<path d="M27.684 5.0901H20.9784C20.5191 5.0901 20.291 4.83347 20.291 4.31706V0.90844C20.291 0.302288 20.0043 0 19.431 0H18.0563C17.483 0 17.1963 0.303863 17.1963 0.90844V4.36271C17.1963 4.84764 16.9667 5.0901 16.5089 5.0901H11.996C11.5367 5.0901 11.3071 4.83347 11.3071 4.31706V0.90844C11.3071 0.302288 11.0205 0 10.4472 0H9.07091C8.52611 0 8.25447 0.318033 8.25447 0.954098V4.36271C8.25447 4.84764 8.02484 5.0901 7.5671 5.0901H0.859965C0.286655 5.0901 0 5.33256 0 5.81748C0 6.27248 0.301663 6.4992 0.903489 6.4992H7.56559C8.02334 6.4992 8.25297 6.74166 8.25297 7.22658V10.6809C8.25297 11.287 8.55313 11.5893 9.15646 11.5893H10.4457C11.019 11.5893 11.3056 11.2713 11.3056 10.6352V7.22658C11.3056 6.74166 11.5487 6.4992 12.0365 6.4992H16.5074C16.9652 6.4992 17.1948 6.74166 17.1948 7.22658V10.9076C17.1948 11.635 17.9257 11.5893 17.9257 11.5893H19.4295C20.0028 11.5893 20.2895 11.2713 20.2895 10.6352V7.22658C20.2895 6.74166 20.5326 6.4992 21.0204 6.4992H27.684C28.2573 6.4992 28.5439 6.25674 28.5439 5.77182C28.5439 5.31681 28.2573 5.0901 27.684 5.0901Z" fill="white"/>
<path d="M10.7654 32.0883L10.7504 32.0851H10.7354C10.4353 32.1087 10.0511 32.3103 9.55879 32.7007H9.55579C9.25863 32.9542 9.17608 32.9259 9.17308 32.9243C9.16858 32.9211 9.15057 32.8881 9.15057 32.7968V15.4183C9.15057 15.1523 9.25713 15.0405 9.50926 15.0405C9.7614 15.0405 10.0631 14.9066 10.0631 14.269V14.0832C10.0631 13.6062 9.81393 13.3417 9.36218 13.3417H1.39287C0.941125 13.3417 0.69199 13.6046 0.69199 14.0832V14.3005C0.69199 14.7775 0.95163 15.042 1.42138 15.042H1.74556C1.9962 15.042 2.10275 15.1554 2.10275 15.4199V34.7868C2.10275 35.0624 1.98569 35.2088 1.72605 35.2592L1.19476 35.3521C0.935122 35.4024 0.756525 35.5095 0.663474 35.6701C0.58093 35.8165 0.570424 36.0023 0.637961 36.2259C0.939624 37.1012 0.999656 37.7389 0.819559 38.1215L0.809053 38.1561C0.774535 38.4049 0.810554 38.5702 0.923115 38.6646C1.04168 38.7638 1.21727 38.7607 1.4559 38.6599C3.4745 37.9561 5.21244 37.1563 6.6202 36.2888C6.89485 36.1282 6.98189 36.166 6.9969 36.1755C7.02542 36.1928 7.04193 36.2526 7.04193 36.3408V42.4023C7.04193 42.8794 7.30157 43.1439 7.77282 43.1439H8.48571C8.8309 43.1439 9.15057 43.0525 9.15057 42.3866V34.5397C9.15057 34.2421 9.29765 33.9367 9.5708 33.6438C9.86796 33.4344 10.1696 33.1794 10.4728 32.8802C10.857 32.4488 10.914 32.304 10.8825 32.1969C10.866 32.1418 10.824 32.1025 10.7669 32.0899L10.7654 32.0883ZM7.04193 33.8217C7.04193 34.1035 6.90985 34.3019 6.64271 34.4263C6.26 34.5885 5.58464 34.7648 4.66164 34.9459C4.23541 34.9238 4.18138 34.716 4.18138 34.5365V29.0969C4.18138 28.8324 4.29694 28.719 4.56859 28.719H5.59815C6.20748 28.719 6.29903 28.3333 6.29903 28.1019C6.29903 27.8704 6.20748 27.5162 5.59815 27.5162H4.54007C4.28944 27.5162 4.18138 27.3934 4.18138 27.1068V22.1332C4.18138 21.8687 4.29694 21.7554 4.56859 21.7554H5.59815C6.20748 21.7554 6.29903 21.3696 6.29903 21.1382C6.29903 20.9068 6.20748 20.5525 5.59815 20.5525H4.54007C4.28944 20.5525 4.18138 20.4297 4.18138 20.1432V15.4183C4.18138 15.1523 4.29694 15.0405 4.56859 15.0405H6.68623C6.93687 15.0405 7.04343 15.1538 7.04343 15.4183V33.8217H7.04193Z" fill="white"/>
<path d="M25.5122 20.765C25.5287 20.7666 25.5437 20.7682 25.5602 20.7682C25.7704 20.7682 25.9955 20.5997 26.2476 20.2549V20.2518C26.5238 19.855 26.8314 19.4488 27.1676 19.0379C27.4603 18.6474 27.6554 18.0334 26.923 17.3344C25.9039 16.3913 24.8714 15.4639 23.8508 14.5728C23.5777 14.343 23.3736 14.2154 23.2055 14.1824C23.1544 14.1824 23.1079 14.206 23.0779 14.2501C23.0224 14.3272 22.9803 14.4689 23.1755 15.19C23.7623 17.0809 24.3971 18.8049 25.059 20.3116C25.1775 20.5903 25.3291 20.743 25.5122 20.765Z" fill="white"/>
<path d="M27.1526 24.0083C27.3672 24.0083 27.5878 24.0099 27.7349 23.8571C27.8265 23.7611 27.8715 23.6194 27.8715 23.4273V23.3203C27.87 23.2258 27.8685 23.0873 27.8685 22.9865C27.8685 22.5913 27.4243 22.5913 27.1841 22.5913H22.284C22.281 22.2119 22.2795 21.8797 22.2795 21.7521V13.307C22.2795 12.8472 22.0393 12.5938 21.6056 12.5938H20.9317C20.4965 12.5938 20.2579 12.8583 20.2579 13.3369V22.5913H16.5929C16.4983 22.5913 16.4323 22.5724 16.4113 22.5378C16.4008 22.5205 16.3753 22.4496 16.4668 22.2465L18.2948 18.0176C18.4884 17.5626 18.3338 17.1092 17.8356 16.6683C17.5279 16.396 17.2833 16.2952 17.0927 16.3566C16.9546 16.4007 16.8555 16.5251 16.7985 16.7266L15.2842 22.0733C15.1851 22.4228 15.014 22.5929 14.7634 22.5929H10.5641C10.1229 22.5929 9.87976 22.8495 9.87976 23.3155C9.87976 23.7816 10.1334 24.0083 10.5926 24.0083H20.2579L20.2294 24.9026V27.2532C20.2669 28.752 20.3704 30.2839 20.54 31.8111C20.7652 33.5367 21.1359 35.0938 21.6401 36.4383C21.7602 36.802 21.7362 37.1185 21.5666 37.4066C20.7336 38.8346 19.4369 40.3445 17.7125 41.8937C17.2788 42.2826 17.2217 42.4432 17.2232 42.5486C17.2232 42.6101 17.2487 42.6636 17.2848 42.6935C17.3808 42.7943 17.5474 42.7738 18.1522 42.3849C19.4985 41.5347 20.8762 40.461 22.2465 39.1904C22.38 39.0566 22.4941 38.992 22.5766 39.0094C22.6367 39.0204 22.6922 39.0802 22.7477 39.1951C23.6347 40.7318 25.1145 42.0858 27.1526 43.2225C27.2832 43.2855 27.3972 43.3154 27.4933 43.3154C27.5698 43.3154 27.6359 43.2965 27.6929 43.2571C27.813 43.1753 27.873 43.0178 27.873 42.7864V39.9351C27.873 39.5163 27.7995 39.1936 27.6629 38.9889C27.4303 38.5166 27.3492 37.9403 27.4228 37.2617V35.004C27.4228 34.5632 27.3852 34.2908 27.1976 34.2908C27.0701 34.2908 26.9995 34.4042 26.9185 35.0733C26.7309 36.2384 26.5613 37.4097 26.4127 38.5512C26.3902 38.7118 26.3452 38.8173 26.2851 38.8472C26.2206 38.8802 26.1185 38.8346 26.045 38.7905C25.5167 38.4835 24.9794 37.9828 24.4541 37.3121C24.217 36.9547 24.172 36.6461 24.3176 36.3706C25.2751 34.6246 25.8949 32.7306 26.1576 30.7452C26.4007 29.1598 26.5808 27.557 26.6919 25.9858C26.7144 25.7527 26.6708 25.5717 26.5643 25.4473C26.4577 25.3229 26.2926 25.26 26.0735 25.26H25.2301C24.7993 25.26 24.5367 25.5008 24.4722 25.9574C24.3581 26.8407 24.2635 27.7113 24.1915 28.5489C24.0804 30.1139 23.7428 31.7025 23.186 33.269C23.1529 33.3635 23.1274 33.4296 23.1064 33.4721C23.1019 33.4532 23.0974 33.4296 23.0929 33.4013C22.8333 32.2031 22.6442 30.8602 22.5331 29.4133L22.308 24.0665V24.0099H27.0986H27.1526V24.0083Z" fill="white"/>
<path d="M12.6292 21.5444C12.7238 21.8199 12.8408 21.9616 12.9864 21.9773C12.9954 21.9773 13.0059 21.9789 13.0149 21.9789C13.147 21.9789 13.2746 21.8734 13.4052 21.653L14.034 20.5037C14.3071 19.992 14.2726 19.5386 13.9334 19.156C13.5072 18.6663 13.075 18.1594 12.6472 17.6445C12.4972 17.4777 12.3006 17.2966 12.1325 17.3722C11.9689 17.4462 11.9599 17.6996 11.9659 17.8823C12.0229 19.0584 12.2465 20.288 12.6292 21.5428V21.5444Z" fill="white"/>
<path d="M18.0758 40.4925V25.6079C18.0758 25.1419 17.8327 24.8853 17.3914 24.8853H16.7356C16.2944 24.8853 16.0512 25.1419 16.0512 25.6079C16.0512 26.0377 15.8666 26.0928 15.7075 26.0928H13.4218C13.2612 26.0928 13.0766 26.0346 13.0766 25.578C13.0766 25.1214 12.8335 24.8853 12.3922 24.8853H11.906C11.4827 24.8853 11.2501 25.1529 11.2501 25.6394V40.7648C11.2501 41.2309 11.5038 41.4875 11.963 41.4875H12.3907C12.832 41.4875 13.0751 41.2199 13.0751 40.7349V39.436C13.0751 39.181 13.1877 39.0723 13.4488 39.0723H15.706C15.9477 39.0723 16.0497 39.181 16.0497 39.436V40.524C16.0497 40.99 16.3034 41.2466 16.7626 41.2466H17.3914C17.8327 41.2466 18.0758 40.979 18.0758 40.4925ZM16.0512 37.5326C16.0512 37.7876 15.9477 37.8963 15.7075 37.8963H13.4218C13.1802 37.8963 13.0766 37.7782 13.0766 37.5026V33.5682C13.0766 33.3131 13.1892 33.2045 13.4503 33.2045H14.4213C14.8626 33.2045 15.1057 32.9479 15.1057 32.4818C15.1057 32.0158 14.8626 31.7891 14.4213 31.7891H13.4218C13.1802 31.7891 13.0766 31.671 13.0766 31.3955V27.8751C13.0766 27.62 13.1892 27.5114 13.4503 27.5114H15.7361C15.8921 27.5114 16.0527 27.5586 16.0527 27.905V37.5341L16.0512 37.5326Z" fill="white"/>
<path d="M14.5637 14.6185H10.7936C10.3524 14.6185 10.1093 14.8752 10.1093 15.3412C10.1093 15.8072 10.3629 16.0339 10.8221 16.0339H18.7629C19.2042 16.0339 19.4473 15.7773 19.4473 15.3113C19.4473 14.8452 19.2042 14.6185 18.7629 14.6185H15.6788C15.5932 14.6185 15.5647 14.5981 15.5632 14.5949C15.5632 14.5949 15.5362 14.5209 15.7118 14.2627L16.2236 13.5101C16.6813 12.8867 16.4517 12.4694 16.177 12.227L14.7483 11.0194C14.1915 10.5502 14.0654 10.5109 13.9919 10.5109L13.9213 10.5203L13.8883 10.5612C13.8403 10.6195 13.8043 10.7171 13.8793 11.2792C14.0339 12.556 14.2785 13.5353 14.6072 14.1903C14.7528 14.4721 14.7197 14.5587 14.7122 14.5729C14.6972 14.6012 14.6432 14.6169 14.5637 14.6169V14.6185Z" fill="white"/>
<path d="M48.0006 40.9129C41.9883 40.9129 37.0972 35.7834 37.0972 29.4763V18.3625C37.0972 12.0569 41.9868 6.9259 48.0006 6.9259C54.0143 6.9259 58.9025 12.0554 58.9025 18.3625V29.4763C58.9025 35.7819 54.0128 40.9129 48.0006 40.9129ZM48.0006 7.57299C42.3275 7.57299 37.7125 12.4143 37.7125 18.3641V29.4779C37.7125 35.4276 42.3275 40.2689 48.0006 40.2689C53.6736 40.2689 58.2871 35.4276 58.2871 29.4779V18.3625C58.2871 12.4128 53.6736 7.57141 48.0006 7.57141V7.57299Z" fill="white"/>
<path d="M48.0003 39.0599C42.9636 39.0599 38.8649 34.7601 38.8649 29.4764V18.3625C38.8649 13.0772 42.9636 8.77905 48.0003 8.77905C53.037 8.77905 57.1358 13.0788 57.1358 18.3625V29.4764C57.1358 34.7617 53.037 39.0599 48.0003 39.0599ZM48.0003 9.42456C43.3028 9.42456 39.4802 13.4346 39.4802 18.3625V29.4764C39.4802 34.4043 43.3028 38.4143 48.0003 38.4143C52.6979 38.4143 56.5204 34.4043 56.5204 29.4764V18.3625C56.5204 13.4346 52.6979 9.42456 48.0003 9.42456Z" fill="white"/>
<path d="M55.467 30.7043C55.4325 30.402 55.41 30.0714 55.3965 29.714C55.3544 29.7109 55.3064 29.7109 55.2509 29.714C55.1954 29.7172 55.1443 29.7266 55.0978 29.7424C55.0318 29.766 54.9747 29.8006 54.9297 29.8463C54.8847 29.8919 54.8607 29.9502 54.8562 30.021C54.8607 30.3044 54.8442 30.5374 54.8066 30.7232C54.7676 30.909 54.6941 31.0696 54.5815 31.2034C54.4705 31.3372 54.3159 31.4569 54.1208 31.5608C53.9257 31.6647 53.663 31.7749 53.3328 31.8914L50.1751 33.0077L53.9047 24.0351C53.9137 24.0115 53.9047 23.9847 53.9077 23.9595C53.9122 23.9548 53.9227 23.9501 53.9257 23.9469C53.9677 23.8902 53.9917 23.8241 53.9962 23.747L54.1283 21.4688C54.1388 21.2988 54.1943 21.1649 54.2994 21.0705C54.4029 20.976 54.583 20.8941 54.8397 20.8264C54.8787 20.8123 54.9147 20.7886 54.9432 20.754C54.9717 20.7209 54.9897 20.6611 54.9942 20.5761C54.9972 20.5257 54.9942 20.458 54.9822 20.3746C54.7826 20.4187 54.55 20.4643 54.2844 20.5131C54.0172 20.5619 53.7816 20.5997 53.5745 20.6281C53.3674 20.6564 53.1272 20.6832 52.8496 20.7068C52.5734 20.7304 52.3198 20.7509 52.0902 20.765C52.0707 20.8359 52.0587 20.9052 52.0542 20.9729C52.0512 21.0248 52.0602 21.0736 52.0812 21.1208C52.1022 21.1681 52.1442 21.1933 52.2072 21.1933C52.5059 21.1948 52.7175 21.2326 52.8376 21.3051C52.9591 21.3775 53.0147 21.5286 53.0012 21.7601L52.8886 23.7186C52.7265 23.7911 52.5284 23.8603 52.2928 23.9265C52.0557 23.9926 51.823 24.0414 51.5934 24.0713C51.1417 24.1327 50.7289 24.0902 50.3552 23.9469C49.9815 23.8021 49.6649 23.5706 49.4037 23.2495C49.1426 22.9283 48.946 22.5331 48.8109 22.0592C48.6773 21.5869 48.6278 21.0547 48.6608 20.4675C48.6893 19.9636 48.7809 19.4882 48.9325 19.0395C49.0841 18.5908 49.2942 18.194 49.5613 17.8492C49.83 17.5028 50.1586 17.2147 50.5503 16.9848C50.9406 16.755 51.3908 16.6054 51.8981 16.5361C52.5329 16.4495 53.0132 16.5078 53.3404 16.7093C53.6675 16.9108 53.8851 17.2871 53.9947 17.8398C54.0202 17.9468 54.0953 17.9909 54.2228 17.9736C54.2543 17.9689 54.2949 17.9594 54.3429 17.9452C54.3909 17.9311 54.4224 17.9138 54.4404 17.8933C54.3864 17.5957 54.3474 17.2903 54.3219 16.9754C54.2964 16.6605 54.2844 16.3567 54.2859 16.0591C54.0352 16.0245 53.8026 15.9993 53.588 15.9819C53.3719 15.9646 53.1588 15.9536 52.9471 15.9489C52.734 15.9442 52.5194 15.9489 52.3033 15.9662C52.0857 15.9835 51.8575 16.0071 51.6189 16.0402C50.7019 16.1646 49.8239 16.6054 49.0525 17.1706C47.7618 18.1169 47.085 19.6724 47.0084 20.9807C46.9949 21.2074 46.9919 21.4326 47.0024 21.6546C46.8403 21.7475 46.6557 21.8372 46.4216 21.9206L44.2319 22.8559L47.8849 13.9494C47.9089 13.8801 47.9104 13.7935 47.8849 13.6912L42.4339 15.6183C42.1323 15.7253 41.8651 15.8088 41.634 15.8686C41.4029 15.9284 41.1973 15.9914 41.0187 16.0544C40.8296 16.1205 40.7485 16.2354 40.7771 16.3976C40.8011 16.5865 40.8296 16.8337 40.8656 17.136C40.9001 17.4383 40.9241 17.7689 40.9361 18.1263C40.9782 18.1294 41.0262 18.1294 41.0817 18.1263C41.1357 18.1232 41.1883 18.1137 41.2348 18.098C41.3008 18.0743 41.3579 18.0397 41.4029 17.994C41.4479 17.9484 41.4719 17.8901 41.4764 17.8193C41.4719 17.5359 41.4884 17.3029 41.526 17.1171C41.565 16.9313 41.6385 16.7707 41.7511 16.6369C41.8621 16.5031 42.0167 16.3834 42.2118 16.2795C42.4069 16.1756 42.6696 16.0654 42.9998 15.9489L46.1575 14.8326L42.4279 23.8052C42.4189 23.8288 42.4279 23.8556 42.4249 23.8808C42.4204 23.8855 42.4099 23.8902 42.4069 23.8934C42.3649 23.9501 42.3409 24.0162 42.3364 24.0933L42.2043 26.3715C42.1938 26.5416 42.1383 26.6754 42.0332 26.7699C41.9297 26.8643 41.7496 26.9462 41.4929 27.0139C41.4539 27.0281 41.4179 27.0517 41.3894 27.0863C41.3609 27.1194 41.3429 27.1792 41.3384 27.2642C41.3354 27.3146 41.3384 27.3823 41.3504 27.4658C41.55 27.4217 41.7826 27.376 42.0482 27.3272C42.3154 27.2784 42.551 27.2406 42.7581 27.2123C42.9652 27.1839 43.2054 27.1572 43.483 27.1336C43.7592 27.1099 44.0128 27.0895 44.2424 27.0753C44.2619 27.0044 44.2739 26.9352 44.2784 26.8675C44.2814 26.8171 44.2724 26.7667 44.2514 26.7195C44.2304 26.6722 44.1884 26.6471 44.1254 26.6471C43.8267 26.6455 43.6151 26.6077 43.495 26.5353C43.3735 26.4628 43.3179 26.3117 43.3314 26.0803L43.444 24.1217C43.6061 24.0493 43.8042 23.98 44.0398 23.9139C44.2769 23.8477 44.5096 23.7989 44.7392 23.769C45.1909 23.7076 45.6037 23.7501 45.9774 23.8934C46.3511 24.0382 46.6677 24.2697 46.9289 24.5909C47.19 24.912 47.3866 25.3072 47.5217 25.7811C47.6553 26.2535 47.7048 26.7856 47.6718 27.3744C47.6433 27.8783 47.5517 28.3537 47.4001 28.8024C47.2486 29.2511 47.0384 29.6479 46.7713 29.9927C46.5027 30.3391 46.174 30.6272 45.7823 30.8571C45.392 31.0869 44.9418 31.2365 44.4345 31.3058C43.7997 31.3924 43.3194 31.3341 42.9923 31.1326C42.6651 30.9311 42.4475 30.5548 42.3379 30.0021C42.3124 29.8951 42.2373 29.851 42.1098 29.8683C42.0783 29.873 42.0377 29.8825 41.9897 29.8967C41.9417 29.9108 41.9102 29.9281 41.8922 29.9486C41.9462 30.2462 41.9852 30.5516 42.0107 30.8665C42.0362 31.1814 42.0482 31.4852 42.0467 31.7828C42.2974 31.8174 42.53 31.8426 42.7446 31.86C42.9607 31.8773 43.1738 31.8883 43.3855 31.893C43.5986 31.8977 43.8132 31.893 44.0293 31.8757C44.2469 31.8584 44.4751 31.8348 44.7137 31.8017C45.6307 31.6773 46.5087 31.2365 47.2801 30.6713C48.5708 29.725 49.2476 28.1695 49.3242 26.8612C49.3377 26.6345 49.3407 26.4093 49.3302 26.1873C49.4923 26.0944 49.6769 26.0047 49.911 25.9212L52.1007 24.986L48.4477 33.8925C48.4237 33.9618 48.4222 34.0484 48.4477 34.1507L53.8987 32.2236C54.2003 32.1166 54.4675 32.0331 54.6986 31.9733C54.9297 31.9135 55.1353 31.8505 55.3139 31.7875C55.503 31.7214 55.5841 31.6065 55.5556 31.4443C55.5315 31.2554 55.503 31.0082 55.467 30.7059V30.7043ZM44.1464 23.3534L46.8493 22.3001C46.9274 22.2717 46.9934 22.2576 47.0685 22.2324C47.1465 22.6559 47.2966 23.0527 47.5622 23.3975C47.6268 23.4809 47.7033 23.5455 47.7738 23.6194C46.7758 23.0983 45.4746 23.081 44.1464 23.3549V23.3534ZM49.4848 25.5402C49.4067 25.5686 49.3407 25.5827 49.2656 25.6079C49.1876 25.1844 49.0375 24.7877 48.7719 24.4429C48.7073 24.3594 48.6308 24.2949 48.5603 24.2209C49.5583 24.742 50.861 24.7593 52.1877 24.4854L49.4848 25.5387V25.5402Z" fill="white"/>
</svg>
