<svg width="96" height="44" viewBox="0 0 96 44" fill="none" xmlns="http://www.w3.org/2000/svg">
<path d="M71.4116 32.3574H70.0789C69.5056 32.3574 69.219 32.6613 69.219 33.2659C69.219 34.5695 69.1754 35.9471 69.0899 37.4019C69.0314 39.1589 68.6171 40.7034 67.8427 42.0369C67.6131 42.3392 67.499 42.6116 67.499 42.8556C67.499 43.0997 67.8277 43.0068 68.4881 42.5833C69.9498 41.6433 70.9659 40.431 71.5407 38.9479C72.057 37.0083 72.3001 35.1158 72.2716 33.2674C72.2716 32.6613 71.985 32.359 71.4116 32.359V32.3574Z" fill="white"/>
<path d="M82.5881 35.7661C82.8462 36.3723 83.1749 36.3424 83.5771 35.6748L84.7807 33.6296C85.1529 33.0235 85.0524 32.463 84.4791 31.9482L80.6535 28.6765C80.0802 28.1916 79.7515 27.9649 79.6645 27.9948C79.5789 28.0247 79.636 28.3427 79.8356 28.9489C80.5515 31.0996 81.47 33.373 82.5866 35.7661H82.5881Z" fill="white"/>
<path d="M82.1141 11.9529C82.6874 11.9529 82.9741 11.6506 82.9741 11.0444C82.9741 10.4698 82.6874 10.1816 82.1141 10.1816H74.8922C74.3189 10.1816 74.0322 10.4855 74.0322 11.0901C74.0322 11.6947 74.3189 11.9544 74.8922 11.9544H82.1141V11.9529Z" fill="white"/>
<path d="M80.2227 25.5861C80.2227 25.9498 80.5228 26.1309 81.1262 26.1309H81.728C82.2998 26.1309 82.588 25.8128 82.588 25.1768V15.0422C82.588 14.4361 82.3013 14.1338 81.728 14.1338H81.0826C80.5093 14.1338 80.2227 14.4518 80.2227 15.0879C80.2227 15.724 79.9931 15.9963 79.5353 15.9963H78.1591C77.7013 15.9963 77.4717 15.6783 77.4717 15.0422C77.4717 14.4062 77.185 14.1338 76.6117 14.1338H75.5807C75.0074 14.1338 74.7207 14.4377 74.7207 15.0422V25.5861C74.7207 26.1923 75.0224 26.4946 75.6242 26.4946H76.6132C77.1865 26.4946 77.4732 26.2379 77.4732 25.7215C77.4732 25.2665 77.7163 25.0398 78.2041 25.0398H79.5368C79.9946 25.0398 80.2242 25.2208 80.2242 25.5845L80.2227 25.5861ZM78.1591 23.2686C77.7013 23.2686 77.4717 23.0119 77.4717 22.4955V18.1328C77.4717 17.6479 77.7148 17.4054 78.2026 17.4054H79.5773C80.0066 17.4054 80.2227 17.6636 80.2227 18.1785V22.5412C80.2227 23.0261 79.9931 23.2686 79.5353 23.2686H78.1591Z" fill="white"/>
<path d="M95.7414 25.5857C95.6844 24.9796 95.5118 24.5261 95.2252 24.2223C94.9955 23.8287 94.823 23.3737 94.7089 22.8588C94.4507 21.4954 94.2932 19.9965 94.2361 18.3591C94.2361 17.753 94.1926 17.435 94.1071 17.405C94.0215 17.4664 93.9345 17.7987 93.8489 18.4048L92.7308 24.9937C92.6453 25.5385 92.4006 25.5542 91.9999 25.0394L90.0654 22.4936C89.6932 22.0086 89.6361 21.5237 89.8943 21.0388C91.5557 18.0695 92.4442 14.6309 92.5597 10.7232C92.5597 10.1171 92.2731 9.81477 91.6998 9.81477H90.367C89.7937 9.81477 89.5071 10.1186 89.5071 10.7232C89.3345 13.3903 89.0613 15.7377 88.6906 17.7672C88.5466 18.282 88.3905 18.2977 88.2179 17.8128C87.5305 15.6023 87.1283 13.5871 87.0142 11.7686C86.9287 10.5579 86.8566 9.34559 86.7996 8.13329C86.7996 7.52714 87.0292 7.22485 87.487 7.22485H94.4508C95.0241 7.22485 95.3107 6.90682 95.3107 6.27075C95.3107 5.69609 95.0241 5.4064 94.4508 5.4064H92.2581C91.7988 5.4064 91.7133 5.14977 91.9999 4.63336L92.6873 3.49663C93.088 2.83065 93.016 2.32998 92.4727 1.99621L89.9798 0.451702C89.435 0.149414 89.1049 0.073842 88.9908 0.224986C88.9053 0.346216 88.9758 0.709907 89.2054 1.31606C89.6632 2.37722 90.1374 3.4368 90.6237 4.49638C90.7948 5.10254 90.6522 5.40482 90.1944 5.40482H87.4435C86.9842 5.40482 86.7561 5.14819 86.7561 4.63178V1.27197C86.7561 0.665823 86.4694 0.363535 85.8961 0.363535H84.8651C84.2918 0.363535 84.0051 0.667398 84.0051 1.27197V4.68059C84.0051 5.16551 83.7755 5.40797 83.3177 5.40797H73.3013C72.8421 5.40797 72.6124 5.10568 72.6124 4.49953C72.6124 3.92487 72.3258 3.63675 71.7525 3.63675H70.7634C70.1901 3.63675 69.9035 3.94061 69.9035 4.54519V23.0415C69.7309 24.2538 69.5298 25.4503 69.3016 26.6311C69.015 27.7521 68.6143 28.9644 68.098 30.2665C67.9269 30.6302 67.8398 30.8884 67.8398 31.0395C67.8684 31.1308 68.1685 30.8726 68.7433 30.2665C71.0651 27.4798 72.2823 24.9796 72.3978 22.7675C72.5119 21.3742 72.5839 20.0107 72.6124 18.6772V7.95223C72.6124 7.46731 72.8556 7.22485 73.3433 7.22485H83.3162C83.774 7.22485 84.0186 7.46731 84.0471 7.95223C84.2467 10.8602 84.4613 13.2092 84.6925 14.9962C85.0076 17.3909 85.596 19.7525 86.4544 22.0858C86.654 22.6006 86.627 23.0855 86.3689 23.5406C85.5374 24.904 84.5484 26.2974 83.4033 27.7222C82.887 28.3583 82.7009 28.7377 82.845 28.8589C82.959 28.9503 83.3027 28.7377 83.876 28.2229L87.0998 25.3149C87.5575 24.8914 87.9597 24.967 88.3034 25.5416C89.393 27.209 90.6252 28.4197 92.0014 29.177C92.8314 29.6619 93.8925 30.1311 95.1816 30.5861C95.755 30.7388 96.0266 30.5105 95.9981 29.9044L95.7399 25.5873L95.7414 25.5857Z" fill="white"/>
<path d="M90.5395 30.9022C90.0818 30.4173 89.7936 30.1748 89.6796 30.1748C89.5655 30.1748 89.6075 30.4787 89.8086 31.0832C90.8112 33.9912 92.0719 37.1274 93.5922 40.4904C93.8503 41.0651 94.122 41.0509 94.4086 40.4447L95.5688 37.9446C95.8554 37.3384 95.7263 36.7338 95.1815 36.1261L90.538 30.9006L90.5395 30.9022Z" fill="white"/>
<path d="M89.2065 38.7196C88.8629 38.1134 88.6482 37.5073 88.5612 36.9011C88.3601 36.0541 88.4036 34.8418 88.6903 33.2658C88.7473 32.6596 88.6617 32.3574 88.4321 32.3574C88.2325 32.3574 88.0464 32.6612 87.8738 33.2658C87.5872 34.9016 87.3575 36.8098 87.1865 38.992C87.1294 39.5981 86.9283 40.0515 86.5846 40.3554C86.2409 40.5979 85.8387 40.7191 85.381 40.7191H80.1807C79.7214 40.8403 79.2066 40.6892 78.6333 40.2641C78.06 39.8091 77.7734 39.3399 77.7734 38.855V30.72C77.7734 30.1138 77.4867 29.8115 76.9134 29.8115H75.5807C75.0074 29.8115 74.7207 30.1154 74.7207 30.72V41.6732C74.9788 43.3389 75.8088 44.0962 77.2136 43.9451H86.9718C87.6022 44.1277 88.3181 43.8538 89.121 43.1264C89.6943 42.5816 90.038 41.7173 90.1521 40.5365C90.1521 39.9303 89.8354 39.3242 89.2065 38.718V38.7196Z" fill="white"/>
<path d="M27.684 5.0901H20.9784C20.5191 5.0901 20.291 4.83347 20.291 4.31706V0.90844C20.291 0.302288 20.0043 0 19.431 0H18.0563C17.483 0 17.1963 0.303863 17.1963 0.90844V4.36271C17.1963 4.84764 16.9667 5.0901 16.5089 5.0901H11.996C11.5367 5.0901 11.3071 4.83347 11.3071 4.31706V0.90844C11.3071 0.302288 11.0205 0 10.4472 0H9.07091C8.52611 0 8.25447 0.318033 8.25447 0.954098V4.36271C8.25447 4.84764 8.02484 5.0901 7.5671 5.0901H0.859965C0.286655 5.0901 0 5.33256 0 5.81748C0 6.27248 0.301663 6.4992 0.903489 6.4992H7.56559C8.02334 6.4992 8.25297 6.74166 8.25297 7.22658V10.6809C8.25297 11.287 8.55313 11.5893 9.15646 11.5893H10.4457C11.019 11.5893 11.3056 11.2713 11.3056 10.6352V7.22658C11.3056 6.74166 11.5488 6.4992 12.0365 6.4992H16.5074C16.9652 6.4992 17.1948 6.74166 17.1948 7.22658V10.9076C17.1948 11.635 17.9257 11.5893 17.9257 11.5893H19.4295C20.0028 11.5893 20.2895 11.2713 20.2895 10.6352V7.22658C20.2895 6.74166 20.5326 6.4992 21.0204 6.4992H27.684C28.2573 6.4992 28.5439 6.25674 28.5439 5.77182C28.5439 5.31681 28.2573 5.0901 27.684 5.0901Z" fill="white"/>
<path d="M10.7656 32.0884L10.7506 32.0853H10.7355C10.4354 32.1089 10.0512 32.3104 9.55891 32.7009H9.55591C9.25875 32.9543 9.1762 32.926 9.1732 32.9244C9.1687 32.9213 9.15069 32.8882 9.15069 32.7969V15.4185C9.15069 15.1524 9.25725 15.0406 9.50938 15.0406C9.76152 15.0406 10.0632 14.9068 10.0632 14.2691V14.0833C10.0632 13.6063 9.81405 13.3418 9.3623 13.3418H1.39299C0.941247 13.3418 0.692112 13.6047 0.692112 14.0833V14.3006C0.692112 14.7777 0.951753 15.0422 1.42151 15.0422H1.74568C1.99632 15.0422 2.10288 15.1555 2.10288 15.42V34.787C2.10288 35.0625 1.98581 35.2089 1.72617 35.2593L1.19488 35.3522C0.935244 35.4026 0.756647 35.5096 0.663597 35.6702C0.581052 35.8166 0.570546 36.0024 0.638083 36.226C0.939746 37.1014 0.999778 37.739 0.819681 38.1216L0.809175 38.1562C0.774657 38.405 0.810676 38.5703 0.923237 38.6648C1.0418 38.7639 1.2174 38.7608 1.45603 38.66C3.47462 37.9563 5.21256 37.1565 6.62032 36.289C6.89497 36.1284 6.98202 36.1661 6.99702 36.1756C7.02554 36.1929 7.04205 36.2527 7.04205 36.3409V42.4024C7.04205 42.8795 7.30169 43.144 7.77294 43.144H8.48583C8.83102 43.144 9.15069 43.0527 9.15069 42.3867V34.5398C9.15069 34.2422 9.29777 33.9368 9.57092 33.6439C9.86808 33.4345 10.1697 33.1795 10.4729 32.8803C10.8571 32.4489 10.9141 32.3041 10.8826 32.197C10.8661 32.1419 10.8241 32.1026 10.7671 32.09L10.7656 32.0884ZM7.04205 33.8218C7.04205 34.1037 6.90998 34.302 6.64283 34.4264C6.26013 34.5886 5.58476 34.7649 4.66176 34.946C4.23553 34.9239 4.1815 34.7161 4.1815 34.5366V29.097C4.1815 28.8325 4.29706 28.7191 4.56871 28.7191H5.59827C6.2076 28.7191 6.29915 28.3334 6.29915 28.102C6.29915 27.8705 6.2076 27.5163 5.59827 27.5163H4.54019C4.28956 27.5163 4.1815 27.3935 4.1815 27.1069V22.1334C4.1815 21.8689 4.29706 21.7555 4.56871 21.7555H5.59827C6.2076 21.7555 6.29915 21.3698 6.29915 21.1383C6.29915 20.9069 6.2076 20.5526 5.59827 20.5526H4.54019C4.28956 20.5526 4.1815 20.4298 4.1815 20.1433V15.4185C4.1815 15.1524 4.29706 15.0406 4.56871 15.0406H6.68636C6.93699 15.0406 7.04355 15.154 7.04355 15.4185V33.8218H7.04205Z" fill="white"/>
<path d="M25.512 20.7653C25.5285 20.7668 25.5435 20.7684 25.56 20.7684C25.7701 20.7684 25.9952 20.5999 26.2474 20.2552V20.252C26.5235 19.8552 26.8312 19.449 27.1674 19.0381C27.46 18.6477 27.6551 18.0336 26.9227 17.3346C25.9037 16.3915 24.8711 15.4642 23.8506 14.5731C23.5774 14.3432 23.3733 14.2157 23.2052 14.1826C23.1542 14.1826 23.1077 14.2062 23.0777 14.2503C23.0221 14.3275 22.9801 14.4692 23.1752 15.1902C23.762 17.0811 24.3969 18.8051 25.0587 20.3118C25.1773 20.5905 25.3289 20.7432 25.512 20.7653Z" fill="white"/>
<path d="M27.1527 24.0083C27.3673 24.0083 27.588 24.0099 27.735 23.8571C27.8266 23.7611 27.8716 23.6194 27.8716 23.4273V23.3203C27.8701 23.2258 27.8686 23.0873 27.8686 22.9865C27.8686 22.5913 27.4244 22.5913 27.1842 22.5913H22.2841C22.2811 22.2119 22.2796 21.8797 22.2796 21.7521V13.307C22.2796 12.8472 22.0395 12.5938 21.6057 12.5938H20.9319C20.4966 12.5938 20.258 12.8583 20.258 13.3369V22.5913H16.593C16.4985 22.5913 16.4324 22.5724 16.4114 22.5378C16.4009 22.5205 16.3754 22.4496 16.4669 22.2465L18.2949 18.0176C18.4885 17.5626 18.334 17.1092 17.8357 16.6683C17.528 16.396 17.2834 16.2952 17.0928 16.3566C16.9547 16.4007 16.8557 16.5251 16.7986 16.7266L15.2843 22.0733C15.1853 22.4228 15.0142 22.5929 14.7635 22.5929H10.5643C10.123 22.5929 9.87988 22.8495 9.87988 23.3155C9.87988 23.7816 10.1335 24.0083 10.5928 24.0083H20.258L20.2295 24.9026V27.2532C20.267 28.752 20.3706 30.2839 20.5402 31.8111C20.7653 33.5367 21.136 35.0938 21.6402 36.4383C21.7603 36.802 21.7363 37.1185 21.5667 37.4066C20.7338 38.8346 19.4371 40.3445 17.7126 41.8937C17.2789 42.2826 17.2219 42.4432 17.2234 42.5486C17.2234 42.61 17.2489 42.6636 17.2849 42.6935C17.3809 42.7943 17.5475 42.7738 18.1524 42.3849C19.4986 41.5347 20.8763 40.461 22.2466 39.1904C22.3801 39.0566 22.4942 38.992 22.5768 39.0094C22.6368 39.0204 22.6923 39.0802 22.7478 39.1951C23.6348 40.7318 25.1146 42.0858 27.1527 43.2225C27.2833 43.2855 27.3974 43.3154 27.4934 43.3154C27.57 43.3154 27.636 43.2965 27.693 43.2571C27.8131 43.1753 27.8731 43.0178 27.8731 42.7864V39.9351C27.8731 39.5163 27.7996 39.1936 27.663 38.9889C27.4304 38.5166 27.3493 37.9403 27.4229 37.2617V35.004C27.4229 34.5632 27.3854 34.2908 27.1978 34.2908C27.0702 34.2908 26.9996 34.4042 26.9186 35.0733C26.731 36.2384 26.5614 37.4097 26.4128 38.5512C26.3903 38.7118 26.3453 38.8173 26.2853 38.8472C26.2207 38.8802 26.1187 38.8346 26.0451 38.7905C25.5168 38.4835 24.9796 37.9828 24.4543 37.3121C24.2171 36.9547 24.1721 36.6461 24.3177 36.3706C25.2752 34.6246 25.895 32.7306 26.1577 30.7452C26.4008 29.1598 26.5809 27.557 26.692 25.9858C26.7145 25.7527 26.671 25.5717 26.5644 25.4473C26.4579 25.3229 26.2928 25.26 26.0736 25.26H25.2302C24.7995 25.26 24.5368 25.5008 24.4723 25.9574C24.3582 26.8407 24.2637 27.7113 24.1916 28.5489C24.0806 30.1139 23.7429 31.7025 23.1861 33.269C23.1531 33.3635 23.1276 33.4296 23.1065 33.4721C23.102 33.4532 23.0975 33.4296 23.093 33.4013C22.8334 32.2031 22.6443 30.8602 22.5332 29.4133L22.3081 24.0665V24.0099H27.0987H27.1527V24.0083Z" fill="white"/>
<path d="M12.6295 21.5444C12.724 21.8199 12.8411 21.9616 12.9867 21.9773C12.9957 21.9773 13.0062 21.9789 13.0152 21.9789C13.1473 21.9789 13.2748 21.8734 13.4054 21.653L14.0342 20.5037C14.3074 19.992 14.2729 19.5386 13.9337 19.156C13.5075 18.6663 13.0752 18.1594 12.6475 17.6445C12.4974 17.4777 12.3008 17.2966 12.1327 17.3722C11.9691 17.4462 11.9601 17.6996 11.9661 17.8823C12.0231 19.0584 12.2468 20.288 12.6295 21.5428V21.5444Z" fill="white"/>
<path d="M18.0757 40.493V25.6084C18.0757 25.1424 17.8326 24.8857 17.3913 24.8857H16.7355C16.2942 24.8857 16.0511 25.1424 16.0511 25.6084C16.0511 26.0382 15.8665 26.0933 15.7074 26.0933H13.4217C13.2611 26.0933 13.0765 26.0351 13.0765 25.5785C13.0765 25.1219 12.8334 24.8857 12.3921 24.8857H11.9059C11.4826 24.8857 11.25 25.1534 11.25 25.6399V40.7653C11.25 41.2314 11.5036 41.488 11.9629 41.488H12.3906C12.8319 41.488 13.075 41.2203 13.075 40.7354V39.4365C13.075 39.1815 13.1875 39.0728 13.4487 39.0728H15.7059C15.9475 39.0728 16.0496 39.1815 16.0496 39.4365V40.5244C16.0496 40.9905 16.3032 41.2471 16.7625 41.2471H17.3913C17.8326 41.2471 18.0757 40.9795 18.0757 40.493ZM16.0511 37.533C16.0511 37.7881 15.9475 37.8967 15.7074 37.8967H13.4217C13.18 37.8967 13.0765 37.7787 13.0765 37.5031V33.5687C13.0765 33.3136 13.1891 33.205 13.4502 33.205H14.4212C14.8625 33.205 15.1056 32.9483 15.1056 32.4823C15.1056 32.0163 14.8625 31.7896 14.4212 31.7896H13.4217C13.18 31.7896 13.0765 31.6715 13.0765 31.396V27.8756C13.0765 27.6205 13.1891 27.5119 13.4502 27.5119H15.7359C15.892 27.5119 16.0526 27.5591 16.0526 27.9055V37.5346L16.0511 37.533Z" fill="white"/>
<path d="M14.5638 14.6184H10.7937C10.3525 14.6184 10.1094 14.875 10.1094 15.3411C10.1094 15.8071 10.363 16.0338 10.8223 16.0338H18.7631C19.2043 16.0338 19.4474 15.7772 19.4474 15.3111C19.4474 14.8451 19.2043 14.6184 18.7631 14.6184H15.6789C15.5933 14.6184 15.5648 14.5979 15.5633 14.5948C15.5633 14.5948 15.5363 14.5208 15.7119 14.2626L16.2237 13.51C16.6814 12.8865 16.4518 12.4693 16.1772 12.2269L14.7484 11.0193C14.1916 10.5501 14.0655 10.5107 13.992 10.5107L13.9214 10.5202L13.8884 10.5611C13.8404 10.6194 13.8044 10.717 13.8794 11.2791C14.034 12.5559 14.2786 13.5352 14.6073 14.1902C14.7529 14.472 14.7199 14.5586 14.7124 14.5727C14.6974 14.6011 14.6433 14.6168 14.5638 14.6168V14.6184Z" fill="white"/>
<path d="M48.0006 40.9128C41.9883 40.9128 37.0972 35.7833 37.0972 29.4762V18.3624C37.0972 12.0568 41.9868 6.92578 48.0006 6.92578C54.0143 6.92578 58.9025 12.0552 58.9025 18.3624V29.4762C58.9025 35.7817 54.0128 40.9128 48.0006 40.9128ZM48.0006 7.57287C42.3275 7.57287 37.7125 12.4142 37.7125 18.3639V29.4778C37.7125 35.4275 42.3275 40.2688 48.0006 40.2688C53.6736 40.2688 58.2871 35.4275 58.2871 29.4778V18.3624C58.2871 12.4126 53.6736 7.57129 48.0006 7.57129V7.57287Z" fill="white"/>
<path d="M48.0002 39.0601C42.9635 39.0601 38.8647 34.7604 38.8647 29.4766V18.3628C38.8647 13.0775 42.9635 8.7793 48.0002 8.7793C53.0369 8.7793 57.1356 13.079 57.1356 18.3628V29.4766C57.1356 34.7619 53.0369 39.0601 48.0002 39.0601ZM48.0002 9.42481C43.3026 9.42481 39.4801 13.4349 39.4801 18.3628V29.4766C39.4801 34.4045 43.3026 38.4146 48.0002 38.4146C52.6977 38.4146 56.5203 34.4045 56.5203 29.4766V18.3628C56.5203 13.4349 52.6977 9.42481 48.0002 9.42481Z" fill="white"/>
<path d="M55.467 30.7046C55.4325 30.4023 55.41 30.0717 55.3965 29.7143C55.3544 29.7111 55.3064 29.7111 55.2509 29.7143C55.1954 29.7174 55.1443 29.7269 55.0978 29.7426C55.0318 29.7662 54.9747 29.8009 54.9297 29.8465C54.8847 29.8922 54.8607 29.9504 54.8562 30.0213C54.8607 30.3047 54.8442 30.5377 54.8066 30.7235C54.7676 30.9093 54.6941 31.0698 54.5815 31.2037C54.4705 31.3375 54.3159 31.4572 54.1208 31.5611C53.9257 31.665 53.663 31.7752 53.3328 31.8917L50.1751 33.008L53.9047 24.0353C53.9137 24.0117 53.9047 23.985 53.9077 23.9598C53.9122 23.955 53.9227 23.9503 53.9257 23.9472C53.9677 23.8905 53.9917 23.8244 53.9962 23.7472L54.1283 21.469C54.1388 21.299 54.1943 21.1652 54.2994 21.0707C54.4029 20.9762 54.583 20.8944 54.8397 20.8267C54.8787 20.8125 54.9147 20.7889 54.9432 20.7543C54.9717 20.7212 54.9897 20.6614 54.9942 20.5763C54.9972 20.526 54.9942 20.4583 54.9822 20.3748C54.7826 20.4189 54.55 20.4646 54.2844 20.5134C54.0172 20.5622 53.7816 20.6 53.5745 20.6283C53.3674 20.6566 53.1272 20.6834 52.8496 20.707C52.5734 20.7306 52.3198 20.7511 52.0902 20.7653C52.0707 20.8361 52.0587 20.9054 52.0542 20.9731C52.0512 21.0251 52.0602 21.0739 52.0812 21.1211C52.1022 21.1683 52.1442 21.1935 52.2072 21.1935C52.5059 21.1951 52.7175 21.2329 52.8376 21.3053C52.9591 21.3777 53.0147 21.5289 53.0012 21.7603L52.8886 23.7189C52.7265 23.7913 52.5284 23.8606 52.2928 23.9267C52.0557 23.9928 51.823 24.0416 51.5934 24.0716C51.1417 24.133 50.7289 24.0904 50.3552 23.9472C49.9815 23.8023 49.6649 23.5709 49.4037 23.2497C49.1426 22.9285 48.946 22.5333 48.8109 22.0594C48.6773 21.5871 48.6278 21.055 48.6608 20.4677C48.6893 19.9639 48.7809 19.4884 48.9325 19.0397C49.0841 18.591 49.2942 18.1942 49.5613 17.8494C49.83 17.5031 50.1586 17.215 50.5503 16.9851C50.9406 16.7552 51.3908 16.6057 51.8981 16.5364C52.5329 16.4498 53.0132 16.508 53.3404 16.7096C53.6675 16.9111 53.8851 17.2874 53.9947 17.84C54.0202 17.9471 54.0953 17.9911 54.2228 17.9738C54.2543 17.9691 54.2949 17.9597 54.3429 17.9455C54.3909 17.9313 54.4224 17.914 54.4404 17.8935C54.3864 17.596 54.3474 17.2905 54.3219 16.9756C54.2964 16.6608 54.2844 16.3569 54.2859 16.0593C54.0352 16.0247 53.8026 15.9995 53.588 15.9822C53.3719 15.9649 53.1588 15.9538 52.9471 15.9491C52.734 15.9444 52.5194 15.9491 52.3033 15.9664C52.0857 15.9838 51.8575 16.0074 51.6189 16.0404C50.7019 16.1648 49.8239 16.6057 49.0525 17.1709C47.7618 18.1171 47.085 19.6726 47.0084 20.981C46.9949 21.2077 46.9919 21.4328 47.0024 21.6548C46.8403 21.7477 46.6557 21.8374 46.4216 21.9209L44.2319 22.8561L47.8849 13.9496C47.9089 13.8803 47.9104 13.7937 47.8849 13.6914L42.4339 15.6185C42.1323 15.7256 41.8651 15.809 41.634 15.8688C41.4029 15.9287 41.1973 15.9916 41.0187 16.0546C40.8296 16.1207 40.7485 16.2357 40.7771 16.3978C40.8011 16.5868 40.8296 16.8339 40.8656 17.1362C40.9001 17.4385 40.9241 17.7692 40.9361 18.1265C40.9782 18.1297 41.0262 18.1297 41.0817 18.1265C41.1357 18.1234 41.1883 18.1139 41.2348 18.0982C41.3008 18.0746 41.3579 18.04 41.4029 17.9943C41.4479 17.9486 41.4719 17.8904 41.4764 17.8195C41.4719 17.5361 41.4884 17.3031 41.526 17.1173C41.565 16.9316 41.6385 16.771 41.7511 16.6371C41.8621 16.5033 42.0167 16.3837 42.2118 16.2798C42.4069 16.1758 42.6696 16.0656 42.9998 15.9491L46.1575 14.8329L42.4279 23.8055C42.4189 23.8291 42.4279 23.8559 42.4249 23.881C42.4204 23.8858 42.4099 23.8905 42.4069 23.8936C42.3649 23.9503 42.3409 24.0164 42.3364 24.0936L42.2043 26.3718C42.1938 26.5418 42.1383 26.6756 42.0332 26.7701C41.9297 26.8646 41.7496 26.9464 41.4929 27.0141C41.4539 27.0283 41.4179 27.0519 41.3894 27.0866C41.3609 27.1196 41.3429 27.1795 41.3384 27.2645C41.3354 27.3149 41.3384 27.3826 41.3504 27.466C41.55 27.4219 41.7826 27.3763 42.0482 27.3275C42.3154 27.2786 42.551 27.2409 42.7581 27.2125C42.9652 27.1842 43.2054 27.1574 43.483 27.1338C43.7592 27.1102 44.0128 27.0897 44.2424 27.0755C44.2619 27.0047 44.2739 26.9354 44.2784 26.8677C44.2814 26.8173 44.2724 26.767 44.2514 26.7197C44.2304 26.6725 44.1884 26.6473 44.1254 26.6473C43.8267 26.6457 43.6151 26.6079 43.495 26.5355C43.3735 26.4631 43.3179 26.3119 43.3314 26.0805L43.444 24.1219C43.6061 24.0495 43.8042 23.9802 44.0398 23.9141C44.2769 23.848 44.5096 23.7992 44.7392 23.7693C45.1909 23.7079 45.6037 23.7504 45.9774 23.8936C46.3511 24.0385 46.6677 24.2699 46.9289 24.5911C47.19 24.9123 47.3866 25.3075 47.5217 25.7814C47.6553 26.2537 47.7048 26.7858 47.6718 27.3747C47.6433 27.8785 47.5517 28.354 47.4001 28.8027C47.2486 29.2514 47.0384 29.6481 46.7713 29.9929C46.5027 30.3393 46.174 30.6274 45.7823 30.8573C45.392 31.0872 44.9418 31.2367 44.4345 31.306C43.7997 31.3926 43.3194 31.3343 42.9923 31.1328C42.6651 30.9313 42.4475 30.555 42.3379 30.0024C42.3124 29.8953 42.2373 29.8512 42.1098 29.8686C42.0783 29.8733 42.0377 29.8827 41.9897 29.8969C41.9417 29.9111 41.9102 29.9284 41.8922 29.9489C41.9462 30.2464 41.9852 30.5519 42.0107 30.8667C42.0362 31.1816 42.0482 31.4855 42.0467 31.7831C42.2974 31.8177 42.53 31.8429 42.7446 31.8602C42.9607 31.8775 43.1738 31.8885 43.3855 31.8933C43.5986 31.898 43.8132 31.8933 44.0293 31.8759C44.2469 31.8586 44.4751 31.835 44.7137 31.8019C45.6307 31.6776 46.5087 31.2367 47.2801 30.6715C48.5708 29.7253 49.2476 28.1698 49.3242 26.8614C49.3377 26.6347 49.3407 26.4096 49.3302 26.1876C49.4923 26.0947 49.6769 26.0049 49.911 25.9215L52.1007 24.9863L48.4477 33.8928C48.4237 33.9621 48.4222 34.0486 48.4477 34.151L53.8987 32.2239C54.2003 32.1168 54.4675 32.0334 54.6986 31.9736C54.9297 31.9137 55.1353 31.8508 55.3139 31.7878C55.503 31.7217 55.5841 31.6067 55.5556 31.4446C55.5315 31.2556 55.503 31.0084 55.467 30.7062V30.7046ZM44.1464 23.3536L46.8493 22.3003C46.9274 22.272 46.9934 22.2578 47.0685 22.2326C47.1465 22.6561 47.2966 23.0529 47.5622 23.3977C47.6268 23.4811 47.7033 23.5457 47.7738 23.6197C46.7758 23.0986 45.4746 23.0812 44.1464 23.3552V23.3536ZM49.4848 25.5405C49.4067 25.5688 49.3407 25.583 49.2656 25.6082C49.1876 25.1847 49.0375 24.7879 48.7719 24.4431C48.7073 24.3597 48.6308 24.2951 48.5603 24.2211C49.5583 24.7423 50.861 24.7596 52.1877 24.4856L49.4848 25.5389V25.5405Z" fill="white"/>
</svg>
