<?xml version="1.0" encoding="utf-8"?>
<!-- Generator: Adobe Illustrator 24.0.1, SVG Export Plug-In . SVG Version: 6.00 Build 0)  -->
<svg version="1.1" id="圖層_1" xmlns="http://www.w3.org/2000/svg" xmlns:xlink="http://www.w3.org/1999/xlink" x="0px" y="0px"
	 viewBox="0 0 100 100" style="enable-background:new 0 0 100 100;" xml:space="preserve">
<style type="text/css">
	.st0{fill:#FFFFFF;}
	.st1{fill:#4D4D4D;}
	.st2{fill-rule:evenodd;clip-rule:evenodd;fill:#4D4D4D;}
</style>
<path class="st0" d="M99,50c0,27.1-21.9,49-49,49c-27,0-49-21.9-49-49S22.9,1,50,1C77.1,1,99,23,99,50z"/>
<path class="st1" d="M78.2,46c0-12.6-12.6-22.8-28.2-22.8c-15.5,0-28.2,10.2-28.2,22.8c0,11.3,10,20.8,23.5,22.5
	c0.9,0.2,2.2,0.6,2.5,1.4c0.3,0.7,0.2,1.8,0.1,2.5c0,0-0.3,2-0.4,2.4c-0.1,0.7-0.6,2.8,2.4,1.5c3-1.3,16.2-9.5,22.1-16.3h0
	C76.2,55.6,78.2,51.1,78.2,46z M40.1,52.7c0,0.3-0.2,0.5-0.5,0.5h-7.9h0c-0.1,0-0.3-0.1-0.4-0.2c0,0,0,0,0,0c0,0,0,0,0,0
	c-0.1-0.1-0.2-0.2-0.2-0.4v0V40.5c0-0.3,0.2-0.5,0.5-0.5h2c0.3,0,0.5,0.2,0.5,0.5v9.7h5.4c0.3,0,0.5,0.2,0.5,0.5V52.7z M44.8,52.7
	c0,0.3-0.2,0.5-0.5,0.5h-2c-0.3,0-0.5-0.2-0.5-0.5V40.5c0-0.3,0.2-0.5,0.5-0.5h2c0.3,0,0.5,0.2,0.5,0.5V52.7z M58.4,52.7
	c0,0.3-0.2,0.5-0.5,0.5h-2c0,0-0.1,0-0.1,0c0,0,0,0,0,0c0,0,0,0,0,0c0,0,0,0,0,0c0,0,0,0,0,0c0,0,0,0,0,0c0,0,0,0,0,0c0,0,0,0,0,0
	c0,0,0,0,0,0c-0.1,0-0.1-0.1-0.1-0.1l-5.6-7.6v7.3c0,0.3-0.2,0.5-0.5,0.5h-2c-0.3,0-0.5-0.2-0.5-0.5V40.5c0-0.3,0.2-0.5,0.5-0.5h2
	c0,0,0,0,0,0c0,0,0,0,0,0c0,0,0,0,0,0c0,0,0,0,0,0c0,0,0,0,0,0c0,0,0,0,0,0c0,0,0,0,0,0c0,0,0,0,0,0c0,0,0,0,0,0c0,0,0,0,0,0
	c0,0,0,0,0,0c0,0,0,0,0,0c0,0,0,0,0,0c0,0,0,0,0,0c0,0,0,0,0,0c0,0,0,0,0,0c0,0,0,0,0,0c0,0,0,0,0,0c0,0,0,0,0,0.1l5.6,7.6v-7.3
	c0-0.3,0.2-0.5,0.5-0.5h2c0.3,0,0.5,0.2,0.5,0.5V52.7z M69.3,42.5c0,0.3-0.2,0.5-0.5,0.5h-5.4v2.1h5.4c0.3,0,0.5,0.2,0.5,0.5v2
	c0,0.3-0.2,0.5-0.5,0.5h-5.4v2.1h5.4c0.3,0,0.5,0.2,0.5,0.5v2c0,0.3-0.2,0.5-0.5,0.5h-7.9h0c-0.1,0-0.3-0.1-0.4-0.2c0,0,0,0,0,0
	c0,0,0,0,0,0c-0.1-0.1-0.2-0.2-0.2-0.4v0V40.5v0c0-0.1,0.1-0.3,0.2-0.4c0,0,0,0,0,0c0,0,0,0,0,0c0.1-0.1,0.2-0.2,0.4-0.2h0h7.9
	c0.3,0,0.5,0.2,0.5,0.5V42.5z"/>
</svg>
