<?xml version="1.0" encoding="utf-8"?>
<!-- Generator: Adobe Illustrator 24.0.1, SVG Export Plug-In . SVG Version: 6.00 Build 0)  -->
<svg version="1.1" id="圖層_1" xmlns="http://www.w3.org/2000/svg" xmlns:xlink="http://www.w3.org/1999/xlink" x="0px" y="0px"
	 viewBox="0 0 100 100" style="enable-background:new 0 0 100 100;" xml:space="preserve">
<style type="text/css">
	.st0{fill:#FFFFFF;}
	.st1{fill:#4D4D4D;}
	.st2{fill-rule:evenodd;clip-rule:evenodd;fill:#4D4D4D;}
</style>
<path class="st0" d="M99,50c0,27.1-21.9,49-49,49c-27,0-49-21.9-49-49S22.9,1,50,1C77.1,1,99,23,99,50z"/>
<g>
	<path class="st2" d="M69.5,23.6c-13,0-26,0-39,0c-4.6,0-7,2.4-7,7.1c0,6.4,0,12.9,0,19.4c0,6.4,0,13,0,19.5c0,4.5,2.5,6.9,6.8,6.9
		c13.1,0,26.1,0,39.2,0c4.5,0,7-2.5,7-7c0-13,0-25.9,0-38.9C76.5,26,74,23.6,69.5,23.6z M65.2,29.5c5.3,0,5.3,0,5.3,5.3
		c0,5.1,0,5.1-5.2,5.1c-5.2,0-5.2,0-5.2-5.2C60.1,29.5,60.1,29.5,65.2,29.5z M50,39.7c5.5,0,10.3,4.8,10.2,10.3
		c0,5.6-4.7,10.3-10.4,10.2c-5.6-0.1-10.3-4.8-10.1-10.4C39.8,44.3,44.5,39.7,50,39.7z M70.5,67.3c0,2.5-0.7,3.2-3.2,3.2
		c-5.8,0-11.6,0-17.3,0c-5.7,0-11.5,0-17.3,0c-2.4,0-3.1-0.7-3.1-3.2c0-6.3,0-12.8-0.1-19.3c0-1.8,0.5-2.2,2.2-2.2
		c2.4,0.2,2.5,0.1,2.2,2.4c-0.9,8.2,4.7,16.1,12.8,17.7c8.3,1.6,16.6-3.4,18.9-11.3c0.7-2.5,0.9-5.1,0.4-7.6c-0.2-0.9,0-1.1,0.9-1.1
		c3.7-0.3,3.7-0.3,3.7,3.4C70.5,55.3,70.5,61.3,70.5,67.3z"/>
</g>
</svg>
