<svg width="390" height="390" viewBox="0 0 390 390" fill="none" xmlns="http://www.w3.org/2000/svg">
<g clip-path="url(#clip0_14_39)">
<path d="M92.032 147.2C92.032 149.197 92.3392 150.733 92.9536 151.808C93.7216 152.73 95.5648 153.19 98.4832 153.19H120.832C123.75 153.19 127.053 153.037 130.739 152.73C134.579 152.269 138.573 151.117 142.72 149.274C147.021 147.277 151.322 144.282 155.622 140.288C160.077 136.141 164.301 130.381 168.294 123.008H171.981L165.299 163.098C158.848 162.79 150.4 162.56 139.955 162.406C129.51 162.253 116.608 162.176 101.248 162.176C85.888 162.176 73.216 162.253 63.232 162.406C53.4016 162.56 46.0288 162.79 41.1136 163.098V157.568L56.7808 154.573C60.7744 154.112 62.7712 152.499 62.7712 149.734V33.8432C62.7712 30.9248 62.2336 29.0816 61.1584 28.3136C60.0832 27.5456 58.624 26.9312 56.7808 26.4704L44.3392 23.4752V17.4848C52.6336 17.9456 65.0752 18.176 81.664 18.176C98.2528 18.176 108.544 17.9456 112.538 17.4848V23.4752L98.0224 26.4704C96.0256 26.9312 94.4896 27.5456 93.4144 28.3136C92.4928 28.928 92.032 30.7712 92.032 33.8432V147.2ZM281.396 165.402C270.029 165.402 259.354 163.712 249.37 160.333C239.54 156.8 230.938 151.885 223.565 145.587C216.192 139.136 210.356 131.379 206.055 122.317C201.908 113.254 199.834 103.194 199.834 92.1344C199.834 80.768 201.984 70.4 206.285 61.0304C210.74 51.6608 216.73 43.6736 224.256 37.0688C231.783 30.464 240.538 25.3952 250.522 21.8624C260.66 18.176 271.412 16.3328 282.778 16.3328C294.298 16.3328 304.896 18.2528 314.573 22.0928C324.404 25.9328 332.928 31.232 340.148 37.9904C347.367 44.5952 352.973 52.5056 356.967 61.7216C361.114 70.784 363.188 80.6912 363.188 91.4432C363.188 102.195 361.191 112.102 357.197 121.165C353.357 130.227 347.828 138.061 340.608 144.666C333.543 151.117 324.941 156.186 314.804 159.872C304.82 163.558 293.684 165.402 281.396 165.402ZM233.242 93.2864C233.242 101.12 234.317 108.877 236.468 116.557C238.772 124.083 242.074 130.842 246.375 136.832C250.676 142.822 255.821 147.661 261.812 151.347C267.956 155.034 274.944 156.877 282.778 156.877C297.984 156.877 309.658 151.501 317.799 140.749C326.093 129.997 330.24 114.022 330.24 92.8256C330.24 83.7632 329.242 75.1616 327.245 67.0208C325.248 58.88 322.176 51.8144 318.029 45.824C314.036 39.68 308.967 34.8416 302.823 31.3088C296.679 27.6224 289.536 25.7792 281.396 25.7792C273.101 25.7792 265.882 27.6992 259.738 31.5392C253.748 35.3792 248.756 40.448 244.762 46.7456C240.922 53.0432 238.004 60.2624 236.007 68.4032C234.164 76.544 233.242 84.8384 233.242 93.2864Z" fill="white"/>
<path d="M191.104 304.042L180.506 305.654C177.894 306.115 176.051 306.806 174.976 307.728C174.054 308.496 173.594 309.955 173.594 312.106V337.68C173.594 342.134 173.44 345.59 173.133 348.048C172.979 350.352 172.442 352.272 171.52 353.808C170.752 355.19 169.446 356.342 167.603 357.264C165.76 358.032 163.226 359.03 160 360.259C156.928 361.488 153.395 362.563 149.402 363.485C145.562 364.406 141.414 365.251 136.96 366.019C132.506 366.634 127.898 367.094 123.136 367.402C118.528 367.709 114.074 367.862 109.773 367.862C98.4064 367.862 87.5776 366.326 77.2864 363.254C66.9952 360.029 58.0096 355.344 50.3296 349.2C42.6496 343.056 36.5056 335.53 31.8976 326.621C27.4432 317.558 25.216 307.19 25.216 295.517C25.216 282 27.6736 270.403 32.5888 260.726C37.6576 250.896 44.3392 242.832 52.6336 236.534C60.928 230.083 70.528 225.398 81.4336 222.48C92.3392 219.408 103.782 217.872 115.763 217.872C136.192 217.872 153.242 221.558 166.912 228.931L168.755 267.638L163.226 268.33C160.922 262.646 158.234 257.347 155.162 252.432C152.243 247.363 148.864 242.986 145.024 239.299C141.184 235.459 136.73 232.464 131.661 230.314C126.746 228.163 121.216 227.088 115.072 227.088C105.395 227.088 96.9472 228.701 89.728 231.926C82.6624 235.152 76.8256 239.683 72.2176 245.52C67.6096 251.203 64.1536 258.115 61.8496 266.256C59.5456 274.243 58.3936 283.075 58.3936 292.752C58.3936 301.814 59.6224 310.416 62.08 318.557C64.5376 326.544 68.1472 333.61 72.9088 339.754C77.824 345.744 83.8144 350.506 90.88 354.038C98.0992 357.571 106.394 359.338 115.763 359.338C121.446 359.338 126.131 358.723 129.818 357.494C133.658 356.266 136.653 354.576 138.803 352.426C141.107 350.275 142.643 347.818 143.411 345.053C144.333 342.288 144.794 339.37 144.794 336.298V312.106C144.794 309.648 144.179 308.035 142.95 307.267C141.875 306.499 140.109 305.962 137.651 305.654L121.062 304.042V296.899C133.043 297.514 144.717 297.821 156.083 297.821C167.45 297.821 179.123 297.514 191.104 296.899V304.042ZM284.528 367.402C273.161 367.402 262.486 365.712 252.502 362.333C242.672 358.8 234.07 353.885 226.697 347.587C219.324 341.136 213.488 333.379 209.187 324.317C205.04 315.254 202.966 305.194 202.966 294.134C202.966 282.768 205.116 272.4 209.417 263.03C213.872 253.661 219.862 245.674 227.388 239.069C234.915 232.464 243.67 227.395 253.654 223.862C263.792 220.176 274.544 218.333 285.91 218.333C297.43 218.333 308.028 220.253 317.705 224.093C327.536 227.933 336.06 233.232 343.28 239.99C350.499 246.595 356.105 254.506 360.099 263.722C364.246 272.784 366.32 282.691 366.32 293.443C366.32 304.195 364.323 314.102 360.329 323.165C356.489 332.227 350.96 340.061 343.74 346.666C336.675 353.117 328.073 358.186 317.936 361.872C307.952 365.558 296.816 367.402 284.528 367.402ZM236.374 295.286C236.374 303.12 237.449 310.877 239.6 318.557C241.904 326.083 245.206 332.842 249.507 338.832C253.808 344.822 258.953 349.661 264.944 353.347C271.088 357.034 278.076 358.877 285.91 358.877C301.116 358.877 312.79 353.501 320.931 342.749C329.225 331.997 333.372 316.022 333.372 294.826C333.372 285.763 332.374 277.162 330.377 269.021C328.38 260.88 325.308 253.814 321.161 247.824C317.168 241.68 312.099 236.842 305.955 233.309C299.811 229.622 292.668 227.779 284.528 227.779C276.233 227.779 269.014 229.699 262.87 233.539C256.88 237.379 251.888 242.448 247.894 248.746C244.054 255.043 241.136 262.262 239.139 270.403C237.296 278.544 236.374 286.838 236.374 295.286Z" fill="white"/>
</g>
<defs>
<clipPath id="clip0_14_39">
<rect width="390" height="390" fill="white"/>
</clipPath>
</defs>
</svg>
